<?xml version="1.0" standalone="no"?>
<!DOCTYPE svg PUBLIC "-//W3C//DTD SVG 20010904//EN"
 "http://www.w3.org/TR/2001/REC-SVG-20010904/DTD/svg10.dtd">
<svg version="1.0" xmlns="http://www.w3.org/2000/svg"
 width="1045.000000pt" height="470.000000pt" viewBox="0 0 1045.000000 470.000000"
 preserveAspectRatio="xMidYMid meet">
<metadata>
Created by potrace 1.15, written by Peter Selinger 2001-2017
</metadata>
<g transform="translate(0.000000,470.000000) scale(0.100000,-0.100000)"
fill="#000000" stroke="none">
<path d="M2347 3218 c-4 -1271 -5 -1284 -48 -1421 -51 -159 -192 -238 -402
-225 -236 16 -356 173 -383 501 -6 83 -8 87 -31 87 -27 0 -541 -57 -592 -66
l-34 -5 7 -117 c30 -523 281 -854 729 -960 103 -24 129 -26 322 -26 234 0 346
17 494 74 268 104 481 332 560 598 66 221 73 388 69 1687 l-3 1090 -342 3
-342 2 -4 -1222z"/>
<path d="M3770 2741 l0 -1701 345 0 345 0 0 639 0 638 423 6 c658 9 811 34
1034 173 210 131 355 332 419 579 32 125 44 364 24 508 -33 246 -129 441 -294
595 -155 145 -306 211 -551 243 -59 8 -374 13 -917 16 l-828 5 0 -1701z m1441
1109 c283 -32 449 -204 449 -466 0 -241 -148 -412 -397 -461 -56 -10 -178 -16
-440 -20 l-363 -5 0 480 0 481 23 5 c35 8 633 -4 728 -14z"/>
<path d="M7521 4338 c-41 -105 -195 -500 -618 -1588 -129 -333 -279 -717 -332
-855 -54 -137 -151 -384 -215 -547 -64 -164 -116 -300 -116 -303 0 -3 164 -5
364 -5 337 0 364 1 371 17 4 10 35 97 70 193 53 148 177 484 200 542 7 17 49
18 685 18 636 0 678 -1 685 -17 3 -10 62 -165 131 -345 68 -179 131 -345 140
-367 l16 -41 375 0 c221 0 373 4 371 9 -1 5 -307 770 -678 1700 l-675 1691
-366 0 -367 0 -41 -102z m519 -1020 c62 -167 164 -440 226 -607 63 -167 114
-307 114 -312 0 -5 -197 -9 -455 -9 -334 0 -455 3 -455 11 0 7 63 186 141 398
77 212 177 486 221 608 45 122 84 220 88 218 4 -3 58 -141 120 -307z"/>
<path d="M710 678 c0 -252 -7 -310 -40 -328 -53 -28 -114 6 -125 70 -7 44 -9
45 -90 34 l-47 -7 7 -46 c20 -133 122 -201 261 -173 71 15 120 51 147 111 20
43 21 63 22 311 l0 265 -67 3 -68 3 0 -243z"/>
<path d="M2845 909 c-3 -8 -4 -163 -3 -344 l3 -330 65 0 65 0 3 126 3 126 118
6 c133 6 182 23 224 79 48 63 58 169 22 238 -18 34 -64 76 -100 91 -18 7 -101
14 -212 17 -148 3 -184 2 -188 -9z m344 -135 c40 -33 43 -89 7 -131 -23 -26
-29 -28 -120 -31 l-96 -4 0 96 0 96 89 0 c82 0 92 -2 120 -26z"/>
<path d="M4900 860 l0 -60 65 0 65 0 0 60 0 60 -65 0 -65 0 0 -60z"/>
<path d="M8591 898 c-5 -13 -59 -153 -120 -313 -61 -159 -116 -301 -122 -314
-15 -35 -1 -42 71 -39 l64 3 27 75 27 75 138 0 138 0 26 -65 c35 -92 33 -90
106 -90 50 0 64 3 64 15 0 18 -248 644 -263 663 -6 7 -35 12 -78 12 -63 0 -70
-2 -78 -22z m128 -263 c23 -58 41 -112 41 -120 0 -12 -17 -15 -85 -15 -61 0
-85 3 -85 13 0 20 74 227 81 227 4 0 26 -47 48 -105z"/>
<path d="M9092 579 l3 -344 65 0 65 0 3 126 3 126 118 6 c151 6 202 29 241
107 56 113 14 253 -90 298 -26 12 -83 17 -223 20 l-187 4 2 -343z m347 195
c42 -35 44 -98 5 -135 -23 -21 -36 -24 -120 -27 l-94 -4 0 96 0 96 89 0 c82 0
92 -2 120 -26z"/>
<path d="M9722 578 l3 -343 65 0 65 0 0 340 0 340 -68 3 -67 3 2 -343z"/>
<path d="M5760 857 c-53 -32 -55 -35 -58 -79 -3 -42 -6 -47 -30 -50 -25 -3
-27 -7 -30 -50 -3 -47 -3 -48 26 -48 l30 0 3 -163 c4 -183 12 -207 74 -233 41
-17 67 -17 118 -3 37 10 37 11 37 61 l0 50 -32 -6 c-59 -11 -63 -2 -63 151 l0
138 48 3 48 3 -3 47 -3 47 -45 5 -45 5 -1 75 c-1 41 -5 75 -10 77 -5 2 -34
-12 -64 -30z"/>
<path d="M1077 726 c-20 -8 -44 -20 -53 -27 -16 -13 -58 -89 -52 -94 2 -1 28
-8 58 -14 42 -9 56 -9 59 0 10 31 42 49 89 49 56 0 86 -23 80 -62 -3 -20 -13
-25 -83 -41 -169 -38 -215 -74 -215 -166 0 -129 140 -190 267 -115 40 23 44
24 50 7 10 -27 23 -33 82 -33 51 0 53 1 46 23 -4 12 -11 105 -14 207 -7 211
-12 228 -84 261 -50 22 -172 25 -230 5z m183 -302 c0 -37 -5 -51 -29 -75 -52
-52 -141 -32 -141 31 0 36 24 55 90 73 81 22 80 23 80 -29z"/>
<path d="M2120 718 c-42 -22 -90 -76 -90 -103 0 -7 23 -17 52 -23 50 -10 53
-9 79 19 22 24 35 29 73 29 53 0 89 -27 84 -63 -2 -18 -14 -24 -63 -35 -169
-38 -214 -62 -235 -128 -16 -48 -5 -98 31 -139 54 -61 160 -69 235 -19 43 30
42 30 54 -1 9 -22 15 -25 64 -25 30 0 57 4 60 9 4 5 1 22 -6 38 -7 17 -12 92
-12 193 -2 185 -8 211 -66 244 -25 15 -57 21 -125 24 -79 3 -96 0 -135 -20z
m198 -300 c-7 -68 -41 -100 -101 -96 -71 5 -101 79 -44 110 21 11 108 35 136
37 10 1 12 -11 9 -51z"/>
<path d="M3561 719 c-47 -24 -93 -80 -112 -136 -7 -21 -10 -71 -7 -122 5 -109
34 -166 106 -208 40 -24 58 -28 122 -27 87 0 119 14 173 73 36 39 45 65 30 74
-5 3 -33 8 -63 12 -53 6 -55 5 -71 -23 -43 -76 -169 -25 -169 68 0 19 5 20
159 20 88 0 162 4 165 9 10 16 -15 136 -37 176 -12 21 -41 52 -64 69 -35 24
-54 30 -115 33 -61 4 -80 1 -117 -18z m170 -108 c17 -17 29 -40 29 -55 l0 -26
-95 0 c-59 0 -95 4 -95 10 0 23 29 79 47 89 35 20 83 13 114 -18z"/>
<path d="M4154 706 l-34 -34 0 29 c0 29 0 29 -60 29 l-60 0 0 -250 0 -251 63
3 62 3 5 165 c3 108 10 173 18 188 18 31 53 43 94 31 18 -5 34 -9 35 -9 1 0 9
23 19 52 16 49 16 52 -2 65 -10 7 -38 13 -62 13 -37 0 -50 -6 -78 -34z"/>
<path d="M4430 718 c-83 -42 -113 -126 -70 -195 27 -45 51 -58 160 -88 52 -14
102 -30 110 -34 22 -12 24 -40 4 -62 -26 -29 -117 -27 -148 4 -13 13 -25 29
-27 36 -7 20 -129 3 -129 -18 0 -32 49 -89 97 -112 63 -30 197 -33 256 -5 103
50 135 166 65 237 -28 28 -55 38 -221 84 -33 9 -61 23 -64 32 -10 26 33 53 84
53 36 0 50 -6 74 -30 29 -29 31 -29 82 -19 29 6 55 14 60 18 12 12 -35 73 -73
95 -26 15 -57 21 -125 24 -79 3 -96 0 -135 -20z"/>
<path d="M5237 726 c-81 -30 -118 -98 -97 -176 18 -65 50 -83 261 -140 78 -21
48 -90 -40 -90 -64 0 -79 6 -97 42 -15 30 -17 30 -72 23 -31 -4 -61 -10 -65
-15 -11 -10 14 -59 45 -86 87 -80 264 -83 349 -7 50 45 67 97 50 152 -15 52
-47 76 -135 102 -159 48 -171 53 -174 77 -7 49 124 57 163 9 19 -24 23 -25 70
-16 27 5 53 13 57 17 13 13 -33 73 -71 96 -45 26 -188 33 -244 12z"/>
<path d="M6105 721 c-45 -20 -91 -69 -111 -118 -37 -87 -25 -221 26 -292 94
-130 317 -114 390 28 13 25 2 40 -30 41 -8 0 -31 3 -51 6 -32 5 -38 3 -44 -15
-3 -12 -20 -28 -36 -37 -59 -30 -124 9 -136 80 l-6 36 162 0 161 0 0 48 c0
107 -63 205 -146 230 -59 17 -132 15 -179 -7z m159 -103 c15 -13 29 -38 32
-55 l7 -33 -98 0 -97 0 6 33 c8 43 48 77 91 77 21 0 44 -9 59 -22z"/>
<path d="M6740 725 c-19 -9 -45 -26 -57 -37 l-23 -21 0 32 0 32 -62 -3 -63 -3
-3 -234 c-2 -168 1 -237 9 -248 9 -10 29 -13 68 -11 l56 3 5 170 c6 209 17
235 103 235 65 0 71 -18 77 -224 l5 -181 60 0 60 0 3 195 c2 215 -3 242 -60
284 -37 26 -130 32 -178 11z"/>
<path d="M7230 724 c-79 -34 -130 -112 -138 -210 -14 -175 77 -287 233 -288
115 -1 202 59 221 150 l6 31 -62 10 -61 10 -15 -37 c-26 -65 -93 -79 -146 -31
l-33 29 0 102 c0 99 1 102 28 126 19 16 40 24 67 24 32 0 43 -6 67 -35 28 -33
32 -35 75 -29 66 9 74 16 59 52 -16 39 -57 77 -103 96 -47 20 -152 20 -198 0z"/>
<path d="M7744 721 c-84 -38 -134 -128 -134 -241 0 -87 19 -139 69 -191 39
-40 55 -49 105 -59 110 -22 206 13 256 96 27 43 22 49 -52 58 -46 6 -50 5 -82
-29 -36 -38 -47 -41 -94 -24 -36 12 -60 44 -64 85 l-3 29 163 3 162 2 0 38 c0
100 -57 198 -135 233 -52 24 -138 24 -191 0z m148 -92 c18 -10 48 -65 48 -89
0 -6 -36 -10 -95 -10 l-95 0 0 26 c0 37 50 84 90 84 17 0 40 -5 52 -11z"/>
<path d="M1460 727 c0 -1 44 -113 98 -247 l98 -245 50 -3 c27 -1 54 1 60 5 11
8 194 464 194 483 0 6 -28 10 -63 10 l-63 0 -58 -160 c-33 -88 -60 -160 -61
-160 -1 0 -29 72 -61 160 l-59 160 -67 0 c-38 0 -68 -1 -68 -3z"/>
<path d="M4902 483 l3 -248 60 0 60 0 3 248 2 247 -65 0 -65 0 2 -247z"/>
</g>
</svg>
